<svg width="20" height="16" viewBox="0 0 20 16" fill="none" xmlns="http://www.w3.org/2000/svg">
<path d="M16.6988 12.0475C18.825 10.15 20 8 20 8C20 8 16.25 1.125 10 1.125C8.7995 1.12913 7.61258 1.37928 6.51251 1.86L7.47501 2.82375C8.28431 2.52894 9.1387 2.3771 10 2.375C12.65 2.375 14.8488 3.835 16.46 5.44625C17.2355 6.22586 17.9306 7.08141 18.535 8C18.4625 8.10875 18.3825 8.22875 18.2913 8.36C17.8725 8.96 17.2538 9.76 16.46 10.5538C16.2538 10.76 16.0388 10.9637 15.8138 11.1613L16.6988 12.0475Z" fill="black"/>
<path d="M14.1213 9.47C14.4002 8.6898 14.4519 7.84643 14.2702 7.03803C14.0886 6.22962 13.6811 5.48941 13.0952 4.90352C12.5094 4.31764 11.7691 3.91018 10.9607 3.72854C10.1523 3.5469 9.30896 3.59856 8.52877 3.8775L9.55752 4.90625C10.0379 4.83749 10.5277 4.88156 10.9881 5.03495C11.4485 5.18835 11.8669 5.44687 12.21 5.79001C12.5531 6.13316 12.8117 6.55151 12.9651 7.01191C13.1185 7.47231 13.1625 7.96211 13.0938 8.4425L14.1213 9.47ZM10.4425 11.0938L11.47 12.1213C10.6898 12.4002 9.84645 12.4519 9.03804 12.2702C8.22963 12.0886 7.48942 11.6811 6.90354 11.0952C6.31766 10.5093 5.91019 9.76913 5.72855 8.96072C5.54691 8.15232 5.59857 7.30895 5.87752 6.52875L6.90627 7.5575C6.83751 8.03789 6.88157 8.52769 7.03497 8.98809C7.18837 9.44849 7.44688 9.86684 7.79003 10.21C8.13318 10.5531 8.55153 10.8116 9.01193 10.965C9.47233 11.1184 9.96213 11.1625 10.4425 11.0938Z" fill="black"/>
<path d="M4.1875 4.8375C3.9625 5.0375 3.74625 5.24 3.54 5.44625C2.76456 6.22586 2.0694 7.08141 1.465 8L1.70875 8.36C2.1275 8.96 2.74625 9.76 3.54 10.5537C5.15125 12.165 7.35125 13.625 10 13.625C10.895 13.625 11.7375 13.4587 12.525 13.175L13.4875 14.14C12.3874 14.6207 11.2005 14.8708 10 14.875C3.75 14.875 0 8 0 8C0 8 1.17375 5.84875 3.30125 3.9525L4.18625 4.83875L4.1875 4.8375ZM17.0575 15.9425L2.0575 0.942495L2.9425 0.0574951L17.9425 15.0575L17.0575 15.9425Z" fill="black"/>
</svg>
